<svg fill="none" height="64" viewBox="0 0 54 64" width="54" xmlns="http://www.w3.org/2000/svg" xmlns:xlink="http://www.w3.org/1999/xlink"><filter id="a" color-interpolation-filters="sRGB" filterUnits="userSpaceOnUse" height="42" width="54" x="0" y="22"><feFlood flood-opacity="0" result="BackgroundImageFix"/><feBlend in="SourceGraphic" in2="BackgroundImageFix" mode="normal" result="shape"/><feGaussianBlur result="effect1_foregroundBlur" stdDeviation="7.5"/></filter><filter id="b" color-interpolation-filters="sRGB" filterUnits="userSpaceOnUse" height="26" width="40" x="7" y="27"><feFlood flood-opacity="0" result="BackgroundImageFix"/><feBlend in="SourceGraphic" in2="BackgroundImageFix" mode="normal" result="shape"/><feGaussianBlur result="effect1_foregroundBlur" stdDeviation="5"/></filter><filter id="c" color-interpolation-filters="sRGB" filterUnits="userSpaceOnUse" height="7.8587" width="20.5293" x="16.8456" y="34.2913"><feFlood flood-opacity="0" result="BackgroundImageFix"/><feBlend in="SourceGraphic" in2="BackgroundImageFix" mode="normal" result="shape"/><feColorMatrix in="SourceAlpha" result="hardAlpha" type="matrix" values="0 0 0 0 0 0 0 0 0 0 0 0 0 0 0 0 0 0 127 0"/><feOffset/><feGaussianBlur stdDeviation="1.71429"/><feComposite in2="hardAlpha" k2="-1" k3="1" operator="arithmetic"/><feColorMatrix type="matrix" values="0 0 0 0 0.992157 0 0 0 0 0.854902 0 0 0 0 0.411765 0 0 0 1 0"/><feBlend in2="shape" mode="normal" result="effect1_innerShadow"/></filter><filter id="d" color-interpolation-filters="sRGB" filterUnits="userSpaceOnUse" height="7.8587" width="20.5293" x="16.8456" y="31.9336"><feFlood flood-opacity="0" result="BackgroundImageFix"/><feBlend in="SourceGraphic" in2="BackgroundImageFix" mode="normal" result="shape"/><feColorMatrix in="SourceAlpha" result="hardAlpha" type="matrix" values="0 0 0 0 0 0 0 0 0 0 0 0 0 0 0 0 0 0 127 0"/><feOffset/><feGaussianBlur stdDeviation="1.71429"/><feComposite in2="hardAlpha" k2="-1" k3="1" operator="arithmetic"/><feColorMatrix type="matrix" values="0 0 0 0 0.980392 0 0 0 0 0.768627 0 0 0 0 0.176471 0 0 0 1 0"/><feBlend in2="shape" mode="normal" result="effect1_innerShadow"/></filter><filter id="e" color-interpolation-filters="sRGB" filterUnits="userSpaceOnUse" height="16.2516" width="20.181" x="17.2164" y="24.7902"><feFlood flood-opacity="0" result="BackgroundImageFix"/><feBlend in="SourceGraphic" in2="BackgroundImageFix" mode="normal" result="shape"/><feGaussianBlur result="effect1_foregroundBlur" stdDeviation="2"/></filter><filter id="f" color-interpolation-filters="sRGB" filterUnits="userSpaceOnUse" height="9.50109" width="15.3951" x="19.2164" y="26.7902"><feFlood flood-opacity="0" result="BackgroundImageFix"/><feBlend in="SourceGraphic" in2="BackgroundImageFix" mode="normal" result="shape"/><feGaussianBlur result="effect1_foregroundBlur" stdDeviation="1"/></filter><linearGradient id="g"><stop offset="0" stop-color="#fac42d"/><stop offset="1" stop-color="#f6841a"/></linearGradient><linearGradient id="h" gradientUnits="userSpaceOnUse" x1="49.9999" x2="36.1478" xlink:href="#g" y1="10.0001" y2="16.2162"/><linearGradient id="i" gradientUnits="userSpaceOnUse" x1="11" x2="18.0728" xlink:href="#g" y1="14.5001" y2="16.2162"/><linearGradient id="j" gradientUnits="userSpaceOnUse" x1="24.156" x2="31.0073" y1="33.2434" y2="42.1"><stop offset="0" stop-color="#fac42d"/><stop offset="1" stop-color="#f78916"/></linearGradient><radialGradient id="k" cx="0" cy="0" gradientTransform="matrix(14.05254746 18.57621552 -18.39438271 13.91499446 21.8065 10.571)" gradientUnits="userSpaceOnUse" r="1"><stop offset="0" stop-color="#ffeb67"/><stop offset=".56" stop-color="#ffd22c"/><stop offset="1" stop-color="#f58500"/></radialGradient><radialGradient id="l" cx="0" cy="0" gradientTransform="matrix(19.25376271 6.24749435 -189.95938351 585.4239621 19.2515 2.32249)" gradientUnits="userSpaceOnUse" r="1"><stop offset="0" stop-color="#feb301"/><stop offset="1" stop-color="#ee8307"/></radialGradient><mask id="m" height="10" maskUnits="userSpaceOnUse" width="10" x="22" y="27"><path clip-rule="evenodd" d="m31.4327 27.2185h-8.6446s.0238 5.5754.0238 6.516c.0135.7762.473 1.5174 1.2789 2.0629.8058.5456 1.8931.8515 3.026.8515s2.2202-.3059 3.026-.8515c.8059-.5455 1.2653-1.2867 1.2788-2.0629.0007-.8874.0111-6.516.0111-6.516z" fill="#f49903" fill-rule="evenodd"/></mask><g filter="url(#a)"><ellipse cx="27" cy="43" fill="#fff621" fill-opacity=".3" rx="12" ry="6"/></g><g filter="url(#b)"><ellipse cx="27" cy="40" fill="#ffbe15" rx="10" ry="3"/></g><g stroke-width="3"><path d="m37.7195 10.7151c3.0382 0 5.5011 2.463 5.5011 5.5011 0 3.0382-2.4629 5.5011-5.5011 5.5011h-1.5717v-11.0022z" stroke="#fac42d"/><path d="m37.7195 10.7151c3.0382 0 5.5011 2.463 5.5011 5.5011 0 3.0382-2.4629 5.5011-5.5011 5.5011h-1.5717v-11.0022z" stroke="url(#h)"/><path d="m16.5011 10.7151c-3.0382 0-5.5011 2.463-5.5011 5.5011 0 3.0382 2.4629 5.5011 5.5011 5.5011h1.5717v-11.0022z" stroke="#fac42d"/><path d="m16.5011 10.7151c-3.0382 0-5.5011 2.463-5.5011 5.5011 0 3.0382 2.4629 5.5011 5.5011 5.5011h1.5717v-11.0022z" stroke="url(#i)"/></g><g filter="url(#c)"><path clip-rule="evenodd" d="m18.8242 35.4495c.3277-.7063 1.0356-1.1582 1.8142-1.1582h12.9437c.7787 0 1.4865.4519 1.8142 1.1582l1.0571 2.2783c.0771.166.2435.2722.4265.2722.2596 0 .4701.2105.4701.4701v1.2324c0 .0906.0088.181.017.2712.1013 1.1201-.7747 2.1763-1.9944 2.1763h-16.5246c-1.2099 0-2.0816-1.0393-1.9967-2.1493 0-.0004-.0003-.0007-.0007-.0007-.0003 0-.0006-.0003-.0006-.0007v-1.5167c0-.2665.2161-.4826.4826-.4826.1879 0 .3588-.1091.4378-.2795z" fill="#e37b1b" fill-rule="evenodd"/></g><g filter="url(#d)"><path d="m18.8242 33.0918c.3277-.7063 1.0356-1.1582 1.8142-1.1582h12.9437c.7787 0 1.4865.4519 1.8142 1.1582l1.7905 3.8587c.615 1.3256-.3529 2.8418-1.8142 2.8418h-16.5246c-1.4614 0-2.4293-1.5162-1.8143-2.8418z" fill="#fac42d"/><path d="m18.8242 33.0918c.3277-.7063 1.0356-1.1582 1.8142-1.1582h12.9437c.7787 0 1.4865.4519 1.8142 1.1582l1.7905 3.8587c.615 1.3256-.3529 2.8418-1.8142 2.8418h-16.5246c-1.4614 0-2.4293-1.5162-1.8143-2.8418z" fill="url(#j)"/></g><path clip-rule="evenodd" d="m31.4327 27.2185h-8.6446s.0238 5.5754.0238 6.516c.0135.7762.473 1.5174 1.2789 2.0629.8058.5456 1.8931.8515 3.026.8515s2.2202-.3059 3.026-.8515c.8059-.5455 1.2653-1.2867 1.2788-2.0629.0007-.8874.0111-6.516.0111-6.516z" fill="#f49903" fill-rule="evenodd"/><g mask="url(#m)"><g filter="url(#e)"><path d="m29.0751 37.0419-.393-5.1082-7.4657-1.5717.0742-1.5347 11.3209-.0371.7858 5.894z" fill="#c95e03"/></g><g filter="url(#f)"><path d="m30.6468 34.2913-3.9293-.3929-5.5011-1.9647.0742-3.1064 11.3209-.0371v4.3223z" fill="#c95e03" fill-opacity=".6"/></g></g><path clip-rule="evenodd" d="m38.5054 6.78586h-22.7903s.0629 9.72774.0629 13.49014c.0356 3.1045 1.247 6.0694 3.3715 8.2516 2.1245 2.1823 4.9909 3.4061 7.9777 3.4061s5.8532-1.2238 7.9777-3.4061c2.1245-2.1822 3.3359-5.1471 3.3715-8.2516.0016-3.5497.029-13.49014.029-13.49014z" fill="url(#k)" fill-rule="evenodd"/><ellipse cx="27.1102" cy="6.785" fill="url(#l)" rx="11.3951" ry="1.785"/><path d="m22.3999 15.9113c0-.5926.183-1.1915.549-1.7966.366-.6113.9-1.1166 1.602-1.5158.702-.3993 1.521-.5989 2.457-.5989.87 0 1.638.1684 2.304.5053.666.3306 1.179.7829 1.539 1.3568.366.5739.549 1.1977.549 1.8714 0 .5302-.105.995-.315 1.3942-.204.3992-.45.7454-.738 1.0386-.282.287-.792.7736-1.53 1.4597-.204.1934-.369.365-.495.5147-.12.1435-.21.2776-.27.4023-.06.1186-.108.2402-.144.365-.03.1185-.078.3306-.144.6363-.114.6487-.471.9731-1.071.9731-.312 0-.576-.1061-.792-.3181-.21-.2121-.315-.5272-.315-.9451 0-.524.078-.9763.234-1.3568.156-.3868.363-.7236.621-1.0106.258-.2932.606-.6394 1.044-1.0386.384-.3493.66-.6113.828-.786.174-.1809.318-.3805.432-.5989.12-.2183.18-.4553.18-.7111 0-.499-.18-.9201-.54-1.2632-.354-.3431-.813-.5146-1.377-.5146-.66 0-1.146.1746-1.458.5239-.312.3431-.576.8515-.792 1.5253-.204.7049-.591 1.0573-1.161 1.0573-.336 0-.621-.1216-.855-.3649-.228-.2495-.342-.5178-.342-.8047zm4.392 11.0887c-.366 0-.687-.1216-.963-.3649-.27-.2495-.405-.5958-.405-1.0387 0-.393.132-.7236.396-.9918.264-.2683.588-.4024.972-.4024.378 0 .696.1341.954.4024.258.2682.387.5988.387.9918 0 .4367-.135.7798-.405 1.0293s-.582.3743-.936.3743z" fill="#fff"/></svg>