<svg fill="none" height="269" viewBox="0 0 797 269" width="797" xmlns="http://www.w3.org/2000/svg"><g fill="#0048bd" fill-opacity=".24"><path clip-rule="evenodd" d="m206.565 71.0507s-.082 2.9742-.048 5.7419c.01.4089-.204.7897-.555.9941-.351.2064-.788.2064-1.139-.002-1.41-.982-3.403-2.7337-4.723-5.6397-.89-1.9641 6.465-1.0943 6.465-1.0943z" fill-rule="evenodd"/><path clip-rule="evenodd" d="m202.847 53.538c6.061 1.8258 9.632 7.7842 7.97 13.2936-1.662 5.5074-7.934 8.4977-13.995 6.6699-6.062-1.8258-9.633-7.7842-7.97-13.2937 1.662-5.5094 7.932-8.4976 13.995-6.6698zm-1.263 4.1847c3.647 1.1003 6.045 4.5294 5.044 7.8463-1 3.3149-4.896 4.846-8.543 3.7478-3.647-1.1003-6.045-4.5294-5.045-7.8463 1.001-3.3149 4.896-4.8481 8.544-3.7478z" fill-rule="evenodd"/><path clip-rule="evenodd" d="m615.919 118.308c.056-.094.121-.185.195-.271.393-.463.762-.559.856-.593.724-.259 1.277-.076 1.666.146.405.231.748.583.922 1.145.006.018.291.924-.453 2.022-1.301 1.922-8.503 12.351-8.503 12.351-.63.91-1.879 1.139-2.789.512-.91-.63-1.141-1.878-.511-2.788 0 0 7.184-10.404 8.483-12.322zm1.219 2.966c.319.098 1.233.297 2.031-.643-.513.605-1.311.829-2.031.643zm-1.277-1.02c.203.415.505.691.874.868-.138-.071-.268-.157-.391-.261-.206-.174-.367-.381-.483-.607z" fill-rule="evenodd"/><path d="m603.668 140.003c1.107.78 2.635.515 3.416-.591.778-1.107.513-2.634-.594-3.413-1.105-.778-2.636-.513-3.414.593-.78 1.106-.515 2.633.592 3.411z"/><path clip-rule="evenodd" d="m2.58037 135.026-.05213.104c1.28725-4.008 4.11638-7.341 7.86186-9.265 3.7474-1.926 8.1044-2.285 12.1165-.996 1.3294.427 2.6828.86 4.0141 1.287 4.0102 1.288 7.3446 4.114 9.2694 7.86 1.9249 3.742 2.2838 8.095.9985 12.103l-.002.008c-1.2892 4.008-4.1163 7.341-7.8638 9.265-3.7454 1.926-8.1044 2.283-12.1145.996-1.1429-.366-3.8959-1.32-5.7345-2.152-4.38707 2.519-9.07088 2.511-9.07088 2.511-.78599 0-1.499786-.461-1.824605-1.178-.324819-.716-.1985004-1.558.318804-2.149 1.756431-2 2.941421-3.992 3.579021-5.195-.19649-.32-.38096-.649-.55339-.984-1.92486-3.745-2.28376-8.1-.99451-12.109l.01604.004.03208-.1zm30.38863 9.891-.002-.016c.9644-2.999.6958-6.253-.7439-9.053-1.4396-2.8-3.9319-4.912-6.9294-5.874-1.3314-.427-2.6828-.862-4.0142-1.289-2.9975-.962-6.2557-.696-9.0548.743-2.80107 1.439-4.9164 3.931-5.87883 6.927v.002c-.96243 2.996-.69375 6.253.74387 9.053.27069.527.57947 1.03.92233 1.505.42106.585.49525 1.351.19449 2.006-.19449.423-.72784 1.533-1.61206 2.962 1.05064-.361 2.17348-.87 3.24217-1.595.63763-.433 1.46573-.463 2.13133-.078 1.3835.799 4.8162 1.962 6.0653 2.362 2.9996.962 6.2558.694 9.0569-.743 2.801-1.439 4.9144-3.93 5.8768-6.928l.002.018z" fill-rule="evenodd"/><path d="m231.703 127.98c.809-.72.895-1.943.191-2.732-.704-.792-1.93-.85-2.738-.13-.81.719-.894 1.942-.19 2.733.704.79 1.929.848 2.737.129z"/><path clip-rule="evenodd" d="m106.641 174.438c-1.163 1.649-2.879 4.122-2.879 4.122-.629.908-1.881 1.135-2.789.503-.91-.631-1.1348-1.88-.505-2.789 0 0 3.204-4.612 3.874-5.514 1.124-1.519 2.823-.641 2.885-.597 3.228 2.273 7.697 1.497 9.973-1.73 2.274-3.228 1.498-7.694-1.73-9.968-3.231-2.273-7.7-1.498-9.974 1.729-.637.906-1.888 1.122-2.795.485-.904-.637-1.12-1.888-.483-2.792 3.549-5.036 10.521-6.247 15.559-2.699 5.039 3.547 6.25 10.518 2.701 15.554-3.16 4.483-9.033 5.934-13.837 3.696z" fill-rule="evenodd"/><path d="m96.0252 185.836c1.2934.91 3.0802.601 3.9908-.691.91-1.293.599-3.077-.6921-3.989-1.2934-.91-3.0801-.599-3.9906.694-.9104 1.292-.6016 3.076.6919 3.986z"/><path clip-rule="evenodd" d="m67.4069 181.244c-.5674-1.705-1.0106-3.461-1.3213-5.253-1.6522-9.514.5453-19.296 6.1094-27.192 0 0 0 0 .002-.002 5.562-7.895 14.0354-13.258 23.5554-14.909 9.5196-1.652 19.3046.545 27.2046 6.104 3 2.113 6.047 4.257 9.047 6.37 7.9 5.561 13.265 14.031 14.917 23.547 1.651 9.513-.545 19.296-6.109 27.192 0 0-.002 0-.002.002-5.562 7.894-14.037 13.258-23.555 14.909-9.52 1.651-19.3051-.545-27.205-6.107-2.9996-2.11-11.3125-7.946-13.6785-10.231-7.8819 2.381-15.7958 1.305-20.5859.176-.8121-.212-1.4276-.877-1.574-1.705-.1484-.828.1985-1.664.8862-2.145 6.6809-4.711 11.102-9.415 12.3091-10.756zm-5.6683 11.223c3.8938.457 8.6358.451 13.3657-.98 1.5198-.459 3.166-.06 4.3069 1.043 2.2737 2.194 10.2759 7.774 13.1571 9.802 6.9516 4.892 15.5617 6.824 23.9387 5.373 8.375-1.453 15.832-6.173 20.726-13.119.002-.002.002-.002.002-.004 4.894-6.947 6.829-15.554 5.376-23.926-1.454-8.373-6.174-15.827-13.126-20.719-3.001-2.112-6.047-4.257-9.046-6.369-6.952-4.892-15.562-6.826-23.9387-5.373-8.3772 1.453-15.832 6.172-20.7283 13.121 0 0 0 0-.002.002-4.8944 6.948-6.8272 15.554-5.3736 23.926.2727 1.577.6617 3.122 1.161 4.621.4952 1.491.1523 3.135-.8983 4.303-1.0106 1.123-4.1445 4.473-8.9205 8.299z" fill-rule="evenodd"/><path clip-rule="evenodd" d="m576.988 135.587c-.489-1.427-.872-2.894-1.141-4.393-1.425-7.961.472-16.144 5.276-22.751 0 0 0 0 .002-.002 4.804-6.604 12.122-11.0913 20.343-12.4722 8.221-1.3829 17.645.2245 28.251 7.6882 10.653 7.495 14.513 14.486 15.941 22.446 1.425 7.961-.472 16.144-5.278 22.75v.002c-4.804 6.605-12.122 11.093-20.343 12.474-8.223 1.381-16.674-.455-23.495-5.109-2.591-1.766-9.769-6.648-11.814-8.56-6.364 1.864-12.754 1.197-16.939.329-.83-.188-1.472-.85-1.634-1.686-.164-.835.183-1.689.882-2.174 5.384-3.792 8.949-7.466 9.949-8.542zm-3.111 8.828c2.935.193 6.283.027 9.624-.951 1.484-.435 3.09-.055 4.218 1.004 1.951 1.823 8.819 6.455 11.289 8.141 5.897 4.02 13.201 5.601 20.305 4.409 7.082-1.191 13.392-5.045 17.53-10.735l.002-.002c4.099-5.635 5.727-12.616 4.51-19.406-1.255-7-4.786-13.053-14.154-19.645-9.402-6.614-17.719-8.1748-25.007-6.95-7.082 1.19-13.392 5.042-17.532 10.732v.002c-4.099 5.638-5.727 12.616-4.51 19.408.231 1.279.556 2.532.973 3.748.523 1.523.164 3.211-.931 4.391-.774.834-2.975 3.119-6.317 5.854z" fill-rule="evenodd"/><path clip-rule="evenodd" d="m272.522 108.615.878.984c.742.82.678 2.089-.144 2.83-.822.742-2.089.676-2.831-.144 0 0-1.662-1.84-1.981-2.219-1.203-1.419.124-2.842.144-2.858.82-.729.892-1.986.163-2.806-.73-.819-1.987-.891-2.805-.162-.821.728-.893 1.986-.165 2.806.736.826.662 2.094-.166 2.828-.826.735-2.096.661-2.829-.165-2.2-2.473-1.979-6.265.493-8.465 2.474-2.1987 6.27-1.9782 8.467.493 1.734 1.948 1.965 4.716.776 6.878z" fill-rule="evenodd"/><path d="m276.459 115.953c.808-.719.894-1.944.19-2.734-.704-.789-1.929-.847-2.739-.13-.809.72-.893 1.944-.189 2.734.704.789 1.93.848 2.738.13z"/><path clip-rule="evenodd" d="m275.489 143.644c-.209.333-.582.527-.977.507-.393-.02-.746-.25-.92-.603-4.117-9.314-5.835-10.294-6.936-10.366-6.211-.397-12.044-3.166-16.215-7.7h-.002c-4.17-4.531-6.336-10.455-6.021-16.466.313-6.01 3.082-11.6181 7.696-15.5863 1.752-1.5072 3.533-3.0384 5.285-4.5475 4.616-3.9682 10.697-5.9744 16.909-5.5756 6.211.3988 12.044 3.1666 16.215 7.7h.002c4.17 4.5314 6.336 10.4554 6.021 16.4664-.313 6.01-3.082 11.618-7.698 15.588-1.752 1.507-6.685 5.572-9.179 6.923-.25 6.034-2.707 11.121-4.18 13.66zm-1.111-8.397c.481-1.648.838-3.488.92-5.446.064-1.539.934-2.932 2.29-3.663 2.292-1.241 6.797-5.007 8.407-6.392 3.703-3.184 5.931-7.678 6.184-12.5.252-4.85-1.51-9.6216-4.875-13.2792 0 0 0 0-.002 0-3.412-3.7097-8.188-5.9704-13.273-6.2971-5.061-.3247-10.017 1.2967-13.775 4.5274-1.754 1.5091-3.533 3.0383-5.287 4.5454-3.701 3.1847-5.929 7.6795-6.182 12.5025-.252 4.848 1.51 9.622 4.875 13.277h.002c3.412 3.71 8.188 5.973 13.273 6.297 1.145.074 2.675.291 4.63 2.357.72.76 1.644 2.004 2.813 4.071z" fill-rule="evenodd"/><path clip-rule="evenodd" d="m217.389 129.23c-.248-.439-.481-.888-.694-1.349-2.055-4.435-2.263-9.506-.579-14.093 1.682-4.59 5.123-8.323 9.56-10.378 4.435-2.054 9.508-2.262 14.102-.579 1.68.615 5.596 3.439 7.41 4.93.857.704.979 1.968.275 2.822s-1.967.976-2.821.275c-1.542-1.269-4.82-3.74-6.246-4.265-3.593-1.317-7.563-1.153-11.036.455-3.47 1.607-6.161 4.529-7.478 8.121-1.32 3.589-1.155 7.557.451 11.027.304.653.655 1.28 1.046 1.876.395.601.437 1.366.111 2.008-.287.567-1.155 2.194-2.599 4.212 1.55-.372 3.312-.994 4.987-2.034.653-.407 1.483-.403 2.133.01 1.614 1.024 5.66 2.584 7.13 3.123 3.593 1.318 7.563 1.154 11.036-.453 3.493-1.618 6.366-5.127 7.691-8.74.381-1.039 1.534-1.572 2.573-1.191 1.038.381 1.574 1.533 1.193 2.571-1.675 4.566-5.358 8.953-9.773 10.997-4.435 2.055-9.508 2.263-14.102.58-1.361-.499-4.697-1.812-6.807-2.892-5.271 2.813-10.835 2.577-10.835 2.577-.786-.032-1.48-.521-1.774-1.251-.295-.729-.137-1.563.407-2.134 2.295-2.411 3.847-4.842 4.639-6.225z" fill-rule="evenodd"/><path clip-rule="evenodd" d="m237.776 114.59-5.484 6.559c-.71.848-.598 2.113.252 2.822.849.71 2.114.597 2.824-.252l5.483-6.558c.71-.85.598-2.114-.252-2.824-.848-.709-2.114-.595-2.823.253z" fill-rule="evenodd"/><path clip-rule="evenodd" d="m181.27 181.462s-2.314 5.047-4.988 8.999c-.251.347-.273.81-.057 1.18.219.371.634.578 1.059.527 2.061-.43 5.211-1.475 8.516-4.146 2.729-2.211-4.53-6.56-4.53-6.56z" fill-rule="evenodd"/><path clip-rule="evenodd" d="m194.148 158.631c9.431 0 17.089 7.091 17.089 15.827 0 8.735-7.658 15.827-17.089 15.827-9.432 0-17.089-7.092-17.089-15.827 0-8.736 7.657-15.827 17.089-15.827zm0 4.374c6.929 0 12.714 5.036 12.714 11.453 0 6.418-5.785 11.454-12.714 11.454-6.93 0-12.714-5.036-12.714-11.454 0-6.417 5.784-11.453 12.714-11.453z" fill-rule="evenodd"/><path clip-rule="evenodd" d="m74.8787 250.943s-.1223 4.436-.0522 8.235c.0121.371-.1764.722-.4932.92-.3168.197-.7138.213-1.0446.04-1.8407-1.13-4.9044-3.493-6.8433-7.768-1.1629-2.561 8.4333-1.427 8.4333-1.427z" fill-rule="evenodd"/><path clip-rule="evenodd" d="m70.4398 233.228c4.361 2.117 6.9034 6.616 5.6302 10.833-1.4416 4.78-7.1239 7.151-12.5857 5.505-3.8577-1.164-6.6748-4.038-7.517-7.339-.2747-1.07-1.3674-1.719-2.4401-1.445-1.0707.275-1.7204 1.367-1.4457 2.439 1.159 4.536 4.9405 8.584 10.2439 10.181 7.7114 2.327 15.5492-1.435 17.5843-8.183 1.8146-6.012-1.5018-12.58-7.7174-15.598-.9946-.483-2.1956-.066-2.6788.928-.4832.996-.0682 2.194.9263 2.679z" fill-rule="evenodd"/><path clip-rule="evenodd" d="m147.342 111.502s-1.752 3.583-8.094 7.674c-.329.222-.506.607-.46.996.045.392.303.727.672.867 2.049.537 5.566.936 10.07-.793 3.428-1.317-2.188-8.744-2.188-8.744z" fill-rule="evenodd"/><path clip-rule="evenodd" d="m170.135 97.6826c9.05 3.9304 13.441 13.9294 9.798 22.3124-3.645 8.383-13.953 11.999-23.006 8.067s-13.442-13.929-9.797-22.315c3.644-8.381 13.952-11.9965 23.005-8.0644zm-1.743 4.0104c6.757 2.934 10.25 10.301 7.529 16.558-2.721 6.261-10.492 8.735-17.249 5.8-6.757-2.936-10.25-10.303-7.529-16.56 2.718-6.259 10.49-8.7341 17.249-5.798z" fill-rule="evenodd"/><path clip-rule="evenodd" d="m41.5401 235.254s-2.5223 5.503-5.4116 9.73c-.2507.339-.2747.796-.0642 1.161.2105.364.6176.573 1.0366.529 2.1855-.425 5.6342-1.513 9.2574-4.446 2.9013-2.348-4.8182-6.974-4.8182-6.974z" fill-rule="evenodd"/><path clip-rule="evenodd" d="m55.2734 210.976c10.0293 0 18.1719 7.542 18.1719 16.831 0 9.292-8.1426 16.833-18.1719 16.833-10.0313 0-18.1738-7.541-18.1738-16.833 0-9.289 8.1425-16.831 18.1738-16.831zm0 4.373c7.527 0 13.7988 5.488 13.7988 12.458 0 6.973-6.2718 12.46-13.7988 12.46-7.5289 0-13.8008-5.487-13.8008-12.46 0-6.97 6.2719-12.458 13.8008-12.458z" fill-rule="evenodd"/><path clip-rule="evenodd" d="m35.1468 32.7975s1.3975 3.7357.004 11.1511c-.0642.3908.0942.7837.409 1.0181.3148.2385.7359.2806 1.0908.1103 1.7985-1.1164 4.5073-3.3951 6.35-7.8503 1.4035-3.3951-7.8538-4.4292-7.8538-4.4292z" fill-rule="evenodd"/><path clip-rule="evenodd" d="m41.1052 10.0194c-6.9235 2.9441-10.0855 10.3094-7.5591 16.2458 2.5264 5.9343 10.0293 8.7662 16.9528 5.8201 1.8587-.7897 3.4567-1.91 4.7459-3.2428.768-.7956 2.0392-.8177 2.8352-.0481s.816 2.0383.0461 2.8339c-1.6582 1.7156-3.7013 3.1446-6.0573 4.1446-8.6418 3.6757-18.6871.3407-22.212-7.9385s1.0366-17.829 9.6784-21.50465c8.6418-3.67363 18.6891-.3387 22.212 7.94055.4351 1.0181-.0401 2.1945-1.0586 2.6274-1.0186.4349-2.1976-.0401-2.6307-1.0582-2.5263-5.93632-10.0293-8.7662-16.9527-5.8201z" fill-rule="evenodd"/><path clip-rule="evenodd" d="m69.0102 29.8616s.1163 2.7818.3289 5.3973c.0381.4088-.1504.8036-.4893 1.0341-.3409.2285-.7781.2545-1.1431.0682-1.4017-.8578-3.3749-2.391-4.7987-5.0265-.9826-1.8158 6.1022-1.4731 6.1022-1.4731zm-2.0575 2.5093v-.002z" fill-rule="evenodd"/><path clip-rule="evenodd" d="m64.3839 13.3789c5.9109 1.3428 9.7185 6.7942 8.4974 12.1673-1.2211 5.3712-7.0117 8.644-12.9226 7.3032-5.9109-1.3428-9.7185-6.7941-8.4974-12.1673 1.2211-5.3711 7.0117-8.6439 12.9226-7.3032zm-.9684 4.2649c3.4507.7836 5.9129 3.7959 5.2011 6.9344-.7138 3.1365-4.2367 4.79-7.6874 4.0063-3.4527-.7836-5.9149-3.7958-5.2031-6.9324.7138-3.1385 4.2366-4.7919 7.6894-4.0083z" fill-rule="evenodd"/><path d="m64.3382 83.7229c.9246-.8237 1.0229-2.2246.2166-3.1285-.8063-.9059-2.2103-.972-3.1349-.1483-.9267.8237-1.025 2.2246-.2187 3.1285.8063.9059 2.2103.972 3.137.1483z"/><path clip-rule="evenodd" d="m110.975 61.5985 1.147 1.2846c.74.8197.675 2.0884-.147 2.8299-.822.7416-2.091.6754-2.831-.1463 0 0-1.895-2.0983-2.261-2.5312-1.196-1.407.088-2.8259.136-2.868 1.059-.942 1.155-2.5653.212-3.6235-.942-1.0582-2.566-1.1524-3.625-.2105-1.058.94-1.153 2.5634-.21 3.6216.736.8277.661 2.0943-.167 2.8298-.826.7356-2.095.6614-2.829-.1643-2.4139-2.7096-2.1713-6.8703.54-9.2833 2.712-2.411 6.873-2.1685 9.287.5411 1.949 2.1906 2.165 5.3251.748 7.7201z" fill-rule="evenodd"/><path d="m115.572 69.9609c.924-.8237 1.022-2.2246.216-3.1305-.806-.9039-2.21-.97-3.135-.1463-.926.8237-1.025 2.2246-.218 3.1285.806.9059 2.21.972 3.137.1483z"/><path clip-rule="evenodd" d="m114.371 101.944c-.213.333-.588.523-.983.501-.393-.024-.744-.259-.914-.613-4.8-10.911-6.789-12.0534-8.062-12.1356-7.1124-.4549-13.7913-3.6255-18.5673-8.8163 0 0-.002 0-.002-.002-4.776-5.1888-7.2563-11.9729-6.8974-18.8552.3589-6.8843 3.5309-13.3056 8.8142-17.8511 2.0071-1.7255 4.0462-3.4792 6.0533-5.2048 5.2833-4.5454 12.2492-6.8422 19.3632-6.3852 7.114.4549 13.792 3.6255 18.568 8.8163 0 0 0 .002.002.002 4.775 5.1888 7.255 11.9729 6.896 18.8552-.359 6.8843-3.531 13.3056-8.814 17.8511-2.007 1.7255-7.656 6.3812-10.515 7.9264-.295 7.1308-3.278 13.1053-4.942 15.9112zm-.961-8.2793c.786-2.2707 1.414-4.9343 1.534-7.8143.064-1.5392.932-2.93 2.288-3.6636 2.655-1.437 7.878-5.792 9.742-7.3953 4.371-3.7619 7.002-9.0689 7.299-14.7627.299-5.7219-1.777-11.3556-5.747-15.6686-.002 0-.002-.002-.002-.002-4.018-4.367-9.642-7.0306-15.629-7.4134-5.959-.3828-11.8 1.5272-16.229 5.3371-2.0071 1.7256-4.0442 3.4792-6.0533 5.2048-4.371 3.7598-6.9996 9.0689-7.2984 14.7627-.2987 5.7219 1.7785 11.3556 5.7485 15.6686 0 0 0 .002.002.002 4.0182 4.367 9.6403 7.0306 15.6272 7.4134 1.213.0781 2.833.3186 4.915 2.5372.94 1.0001 2.183 2.7357 3.803 5.7941z" fill-rule="evenodd"/><path clip-rule="evenodd" d="m46.8855 67.541c1.9068-5.1627 5.7846-9.3634 10.7812-11.6762 5.0106-2.3209 10.739-2.5574 15.9261-.6554 1.9048.6994 6.344 3.9041 8.4032 5.5976.8562.7035.9785 1.9661.2767 2.8219-.7038.8538-1.969.976-2.8231.2746-1.7865-1.4691-5.5861-4.325-7.2383-4.9323-4.1865-1.5332-8.8122-1.3448-12.8584.5291-4.0241 1.8639-7.148 5.2409-8.6919 9.3935l-.0562.1463c-1.5358 4.1847-1.3153 8.7302.5595 12.7746.3528.7616.7599 1.4911 1.217 2.1845.395.6013.4391 1.3689.1123 2.0102-.3569.7014-1.4938 2.8319-3.4046 5.4032 1.971-.4028 4.3269-1.1504 6.5505-2.5312.6537-.4049 1.4818-.4029 2.1334.01 1.8607 1.1804 6.5245 2.9822 8.2228 3.6035 4.1865 1.5352 8.8122 1.3448 12.8564-.5271 4.0462-1.8739 7.1821-5.277 8.718-9.4617l-.0161.0902c.0762-.2365.1705-.4189.2045-.471.0041-.008.0081-.014.0081-.014l3.3725 2.1685s.004-.006.01-.014c.0581-.0922.3088-.5873.3088-1.0683 0 .2345-.0421.469-.1223.6895-1.9028 5.1828-5.7866 9.3975-10.7973 11.7163-5.0106 2.3208-10.7391 2.5573-15.9241.6554-1.584-.5812-5.5119-2.1224-7.902-3.367-6.0011 3.2608-12.3912 2.9902-12.3912 2.9902-.786-.0341-1.4797-.5231-1.7745-1.2526-.2967-.7295-.1363-1.5632.4071-2.1324 2.7308-2.868 4.5494-5.762 5.4377-7.3313-.3128-.5391-.6016-1.0962-.8662-1.6654-2.3058-4.9784-2.5545-10.6622-.6898-15.8189z" fill-rule="evenodd"/><path clip-rule="evenodd" d="m71.5238 68.5795-6.2798 7.5096c-.7098.8498-.5975 2.1144.2526 2.8239.8482.7095 2.1154.5952 2.8231-.2525l6.2819-7.5116c.7098-.8478.5955-2.1124-.2527-2.8219-.8501-.7095-2.1153-.5972-2.8251.2525z" fill-rule="evenodd"/><path clip-rule="evenodd" d="m690.605 78.228 1.085 1.2125c.742.8217.678 2.0904-.144 2.8319-.822.7416-2.09.6754-2.831-.1443 0 0-1.843-2.0422-2.198-2.4611-1.211-1.429.132-2.8619.188-2.908l-.05.0421c1.005-.8919 1.093-2.4311.201-3.4352-.892-1.0021-2.432-1.0922-3.435-.1984-1.004.8919-1.095 2.4311-.202 3.4331.736.8258.661 2.0944-.165 2.8299-.828.7356-2.095.6614-2.831-.1643-2.364-2.6555-2.125-6.732.531-9.0929 2.655-2.3649 6.733-2.1264 9.097.5291 1.899 2.1344 2.12 5.1828.754 7.5256z" fill-rule="evenodd"/><path d="m695.125 86.348c.898-.7996.993-2.1605.21-3.0383-.782-.8778-2.146-.942-3.044-.1443-.899.7997-.993 2.1605-.211 3.0383.782.8799 2.144.944 3.045.1443z"/><g clip-rule="evenodd" fill-rule="evenodd"><path d="m693.811 117.339c-.212.333-.587.525-.98.501-.393-.022-.744-.254-.916-.609-4.642-10.542-6.569-11.648-7.802-11.726-6.905-.443-13.39-3.522-18.025-8.5602 0 0-.002 0-.002-.002-4.636-5.0364-7.044-11.6221-6.695-18.304s3.426-12.9149 8.557-17.328c1.947-1.6755 3.926-3.377 5.875-5.0525 5.129-4.4132 11.892-6.6418 18.797-6.2009 6.906.4429 13.388 3.5213 18.026 8.5598v.002c4.636 5.0365 7.044 11.6221 6.695 18.304s-3.427 12.9169-8.558 17.328c-1.947 1.6755-7.43 6.1948-10.203 7.6958-.287 6.877-3.148 12.644-4.769 15.392zm-.99-8.305c.714-2.132 1.277-4.604 1.387-7.269.065-1.539.933-2.9323 2.29-3.6638 2.571-1.3909 7.627-5.6116 9.432-7.1649 4.219-3.6255 6.755-8.7461 7.042-14.2396.289-5.5214-1.715-10.9547-5.546-15.1174v-.002c-3.88-4.2147-9.308-6.7861-15.086-7.1548-5.753-.3688-11.389 1.475-15.664 5.1507-1.949 1.6754-3.928 3.377-5.875 5.0525-4.216 3.6275-6.755 8.7481-7.041 14.2416-.289 5.5194 1.716 10.9547 5.546 15.1154 0 .002.002.002.002.002 3.877 4.2167 9.305 6.7863 15.086 7.1573 1.197.076 2.797.312 4.848 2.493.89.948 2.061 2.571 3.579 5.399z"/><path d="m524.171 93.4859s-.083 2.9762-.049 5.744c.011.4068-.202.7881-.555.9921-.351.206-.786.206-1.137-.002-1.41-.9821-3.405-2.7338-4.723-5.6398-.892-1.9641 6.464-1.0943 6.464-1.0943z"/><path d="m520.65 75.9609c6.061 1.8258 9.634 7.7841 7.97 13.2936-1.662 5.5074-7.932 8.4976-13.993 6.6719-6.063-1.8278-9.634-7.7862-7.972-13.2957 1.662-5.5094 7.934-8.4976 13.995-6.6698zm-1.263 4.1847c3.647 1.1002 6.047 4.5294 5.047 7.8463-1.001 3.3149-4.899 4.846-8.544 3.7478-3.649-1.1003-6.047-4.5295-5.047-7.8464 1.001-3.3148 4.897-4.848 8.544-3.7477z"/><path d="m621.276 56.3169s.082 2.9742.048 5.7419c-.01.4069.204.7877.555.9941s.788.2044 1.139-.002c1.41-.982 3.405-2.7357 4.723-5.6417.89-1.9621-6.465-1.0923-6.465-1.0923z"/><path d="m624.943 38.7976c-6.06 1.8278-9.633 7.7842-7.97 13.2936 1.664 5.5095 7.934 8.4997 13.995 6.6719s9.634-7.7842 7.972-13.2936c-1.662-5.5095-7.934-8.4997-13.997-6.6719zm1.263 4.1867c3.649-1.1003 7.545.4329 8.545 3.7478 1.001 3.3149-1.399 6.746-5.046 7.8443-3.648 1.1003-7.543-.4329-8.544-3.7478-1-3.3149 1.4-6.746 5.045-7.8443z"/><path d="m598.506 192.967s.082 2.976.048 5.744c-.01.407.205.787.555.992.351.208.789.206 1.139-.002 1.41-.98 3.404-2.734 4.723-5.64.89-1.964-6.465-1.094-6.465-1.094z"/><path d="m602.173 175.438c-6.06 1.826-9.633 7.785-7.971 13.294 1.663 5.509 7.935 8.498 13.996 6.672 6.061-1.828 9.634-7.786 7.972-13.294-1.664-5.509-7.934-8.499-13.997-6.672zm1.263 4.185c3.649-1.098 7.545.433 8.543 3.75 1.001 3.315-1.397 6.744-5.044 7.844-3.648 1.1-7.543-.433-8.544-3.748-1-3.314 1.4-6.746 5.045-7.846z"/><path d="m744.071 17.0854s.295 2.9602.68 5.7019c.06.4028-.103.8077-.425 1.0562-.323.2485-.756.3026-1.131.1423-1.522-.7957-3.722-2.2828-5.398-4.9984-1.133-1.8358 6.274-1.902 6.274-1.902z"/><path d="m738.091.174792c6.244 1.044168 10.541 6.501508 9.588 12.177308-.95 5.6758-6.793 9.4356-13.037 8.3894-6.243-1.0461-10.54-6.5035-9.59-12.17928.952-5.67579 6.795-9.433602 13.039-8.387428zm-.724 4.310958c3.758.62931 6.573 3.72775 5.999 7.14485-.573 3.4151-4.244 5.4273-8 4.798-3.757-.6293-6.57-3.7278-5.999-7.14288.573-3.41509 4.243-5.42928 8-4.79997z"/><path d="m748.566 259.684s-.122 4.435-.052 8.235c.012.373-.176.723-.493.922-.317.196-.714.212-1.045.04-1.84-1.132-4.904-3.495-6.843-7.77-1.163-2.562 8.433-1.427 8.433-1.427z"/><path d="m744.126 241.972c4.363 2.114 6.905 6.614 5.632 10.833-1.444 4.777-7.126 7.148-12.588 5.503-3.857-1.164-6.674-4.038-7.517-7.337-.274-1.072-1.367-1.72-2.438-1.447-1.072.274-1.72 1.367-1.447 2.437 1.159 4.537 4.938 8.586 10.243 10.183 7.712 2.327 15.548-1.435 17.585-8.181 1.814-6.015-1.502-12.582-7.718-15.598-.996-.483-2.197-.067-2.68.927-.484.997-.067 2.197.928 2.68z"/><path d="m715.227 243.997s-2.522 5.506-5.412 9.731c-.25.34-.272.795-.064 1.162.211.363.618.573 1.039.527 2.183-.425 5.632-1.511 9.255-4.445 2.902-2.349-4.818-6.975-4.818-6.975z"/><path d="m728.961 219.72c10.029 0 18.174 7.541 18.174 16.829 0 9.291-8.145 16.833-18.174 16.833-10.032 0-18.174-7.542-18.174-16.833 0-9.288 8.142-16.829 18.174-16.829zm0 4.371c7.527 0 13.799 5.487 13.799 12.458 0 6.972-6.272 12.46-13.799 12.46-7.529 0-13.799-5.488-13.799-12.46 0-6.971 6.27-12.458 13.799-12.458z"/><path d="m660.371 191.558s-.487 6.034-1.756 10.993c-.119.404.016.841.339 1.112.322.27.775.329 1.154.142 1.907-1.146 4.777-3.347 7.179-7.341 1.922-3.201-6.916-4.906-6.916-4.906z"/><path d="m664.95 164.054c9.426-3.429 19.657.876 22.835 9.604 3.18 8.73-1.892 18.6-11.316 22.029-9.428 3.43-19.66-.875-22.838-9.603-3.178-8.731 1.893-18.601 11.319-22.03zm1.496 4.11c7.073-2.575 14.845.437 17.229 6.989 2.386 6.551-1.628 13.851-8.704 16.424-7.074 2.575-14.843-.437-17.229-6.991-2.386-6.549 1.63-13.848 8.704-16.422z"/><path d="m536.901 115.036s-.487 6.033-1.756 10.993c-.118.405.016.842.339 1.113.321.27.776.326 1.155.142 1.907-1.147 4.776-3.347 7.176-7.341 1.923-3.201-6.914-4.907-6.914-4.907z"/><path d="m541.48 87.5449c9.425-3.4291 19.657.8738 22.835 9.604 3.18 8.7281-1.892 18.6011-11.316 22.0301-9.426 3.429-19.658-.876-22.838-9.606-3.178-8.728 1.893-18.5989 11.319-22.0281zm1.495 4.1086c7.076-2.5734 14.846.4389 17.232 6.9905 2.384 6.552-1.63 13.851-8.706 16.424-7.074 2.573-14.843-.439-17.229-6.99-2.384-6.55 1.63-13.8492 8.703-16.4245z"/><path d="m756.752 38.5121s-.487 6.0345-1.756 10.9928c-.119.4048.016.8417.339 1.1143.322.2706.776.3267 1.155.1403 1.906-1.1444 4.776-3.3449 7.176-7.3392 1.925-3.2007-6.914-4.9082-6.914-4.9082z"/><path d="m761.135 11.0236c9.426-3.42912 19.658.8738 22.838 9.602 3.178 8.7301-1.895 18.6026-11.319 22.0297-9.426 3.4292-19.657-.8738-22.837-9.6039-3.178-8.7282 1.892-18.5987 11.318-22.0278zm1.496 4.1085c7.076-2.5733 14.845.439 17.231 6.9906 2.384 6.5516-1.63 13.8508-8.704 16.4241-7.075 2.5733-14.845-.4389-17.231-6.9905-2.384-6.5496 1.63-13.8508 8.704-16.4242z"/><path d="m755.006 163.518c-1.161 1.647-2.877 4.12-2.877 4.12-.631.91-1.883 1.135-2.791.505-.91-.631-1.135-1.882-.505-2.79 0 0 3.204-4.611 3.872-5.515 1.128-1.523 2.835-.633 2.887-.595 3.23 2.272 7.697 1.497 9.971-1.73 2.276-3.229 1.5-7.696-1.73-9.969-3.23-2.272-7.698-1.499-9.971 1.73-.638.904-1.891 1.122-2.796.485-.904-.637-1.12-1.888-.485-2.794 3.549-5.034 10.523-6.245 15.561-2.697 5.039 3.547 6.248 10.515 2.701 15.552-3.16 4.483-9.03 5.934-13.837 3.698z"/></g><path d="m744.587 174.916c1.293.91 3.08.601 3.99-.692.911-1.292.6-3.078-.692-3.988-1.293-.91-3.08-.599-3.99.692-.911 1.292-.602 3.078.692 3.988z"/><path clip-rule="evenodd" d="m716.95 167.04c-.568-1.705-1.011-3.459-1.321-5.251-1.651-9.515.545-19.296 6.109-27.192 0 0 0-.002.002-.002 5.562-7.896 14.037-13.26 23.555-14.911 9.52-1.651 19.305.545 27.205 6.107 2.999 2.112 6.047 4.257 9.047 6.369 7.9 5.559 13.265 14.029 14.917 23.545 1.65 9.516-.545 19.296-6.109 27.192l-.002.002c-5.562 7.897-14.035 13.26-23.555 14.911-9.52 1.65-19.305-.545-27.205-6.106-3-2.113-11.313-7.947-13.679-10.234-7.879 2.383-15.793 1.307-20.586.177-.812-.213-1.427-.878-1.573-1.704-.149-.828.198-1.665.886-2.144 6.681-4.714 11.104-9.418 12.309-10.759zm-5.668 11.226c3.893.457 8.637.449 13.367-.98 1.518-.459 3.164-.062 4.307 1.04 2.272 2.194 10.274 7.774 13.155 9.802 6.952 4.892 15.562 6.826 23.939 5.373s15.832-6.17 20.726-13.119c.002-.002.002-.002.002-.002 4.896-6.948 6.829-15.556 5.375-23.928-1.453-8.373-6.173-15.824-13.125-20.719-3.001-2.11-6.047-4.254-9.046-6.369-6.952-4.892-15.562-6.824-23.939-5.371s-15.832 6.171-20.728 13.119v.002c-4.896 6.949-6.829 15.555-5.376 23.928.275 1.577.662 3.12 1.161 4.622.498 1.491.153 3.132-.898 4.3-1.011 1.123-4.144 4.476-8.92 8.302z" fill-rule="evenodd"/></g></svg>