<svg xmlns="http://www.w3.org/2000/svg" xmlns:xlink="http://www.w3.org/1999/xlink" width="96" height="96"><defs><circle id="a" cx="48" cy="48" r="48"/><path id="c" d="M40 12A12 12 0 0 0 28 0H12A12 12 0 0 0 0 12v.5c0 2 1.6 3.5 3.5 3.5h33c2 0 3.5-1.6 3.5-3.5V12z"/><ellipse id="e" cx="12" cy="9.3" rx="11.9" ry="9.3"/><path id="g" d="M33.5 0v11.5c0 3.6-7.4 3.5-16.5 3.5S.5 15.1.5 11.5V0h33z"/></defs><g fill="none" fill-rule="evenodd"><path d="M0 0h96v96H0z"/><circle cx="48" cy="48" r="48" fill="#FFC609"/><mask id="b" fill="#fff"><use xlink:href="#a"/></mask><g mask="url(#b)"><g transform="translate(-5 -5)"><circle cx="46.9" cy="46.9" r="46.1" fill="#FFDF09"/><path fill="#FFC609" d="M71 93a4 4 0 0 0-4-4H48a4 4 0 0 0 0 8h19a4 4 0 0 0 4-4zM22 44l-4 5s3 11.4 18.4 9c-.5-8.7-2.4-16.4-2.4-16.4L22 44zm62 0l4 5s-3 11.4-18.4 9c.5-8.7 2.4-16.4 2.4-16.4L84 44z"/><path fill="#FFF" d="M45 41a10 10 0 0 0-20 0v7a10 10 0 0 0 20 0v-7zm16-3a10 10 0 0 1 20 0v10a10 10 0 0 1-20 0V38z"/><path fill="#FFDF09" d="M47.1 25.8a5 5 0 0 0-6.1-3.6L9.8 30.6a5 5 0 0 0-3.6 6.1l2.6 9.7a5 5 0 0 0 6.2 3.5l31.2-8.3a5 5 0 0 0 3.5-6.2l-2.6-9.6zm42 24l-30.4-8.2a5 5 0 0 1-3.5-6.2l2.6-9.6a5 5 0 0 1 6-3.6L85.2 28c7.1 8.5 4 21.8 4 21.8z"/><path fill="#FFF" fill-opacity=".3" d="M25 68a5 5 0 0 0-9.9 0v2.4a5 5 0 0 0 9.9 0v-2.5zm-3.1-27c0-2.6-2.1-4.6-4.7-4.6h-.6a4.6 4.6 0 0 0 0 9.2h.6c2.6 0 4.7-2 4.7-4.6z"/><path fill="#FFF" fill-opacity=".4" d="M58 20.5c0-4.1-3.4-7.5-7.5-7.5h-2a7.5 7.5 0 0 0 0 15h2c4.1 0 7.5-3.4 7.5-7.5z"/></g></g><path fill="#422011" d="M68 74a12 12 0 0 0-12-12H40a12 12 0 0 0-12 12v.5c0 2 1.6 3.5 3.5 3.5h33c2 0 3.5-1.6 3.5-3.5V74z"/><g transform="translate(28 62)"><mask id="d" fill="#fff"><use xlink:href="#c"/></mask><g mask="url(#d)"><g transform="translate(3 -8)"><circle cx="17" cy="26.4" r="15.4" fill="#000"/><ellipse cx="17" cy="28.3" fill="#CF3639" rx="11.9" ry="9.3"/><g transform="translate(5 19)"><mask id="f" fill="#fff"><use xlink:href="#e"/></mask><ellipse cx="12" cy="-5.7" fill="#FF6941" mask="url(#f)" rx="11.9" ry="9.3"/></g><path fill="#DFDDDC" d="M33.5 0v11.5c0 3.6-7.4 3.5-16.5 3.5S.5 15.1.5 11.5V0h33z"/><mask id="h" fill="#fff"><use xlink:href="#g"/></mask><path fill="#FFF" d="M26 12.5c0-1.4-1.1-2.5-2.5-2.5h-14a2.5 2.5 0 0 0 0 5h14c1.4 0 2.5-1.1 2.5-2.5z" mask="url(#h)"/></g></g></g><circle cx="31.5" cy="47.4" r="4.5" fill="#404040"/><circle cx="63.9" cy="47.1" r="4.6" fill="#404040"/><path fill="#FFC609" d="M44 84s18.6 1 27.8-7c4 1.9.2 5 .2 5l-13 6-7-1-8-3zm-3 4s-.7-1.8-1.5-1.9c-.3.5-.7 1.9-3.7 1.5C35 88.8 40 90 40 90l1-2z"/><path fill="#7B4D09" d="M17.4 32.6a3 3 0 0 1 2-3.6L33 25.4a3 3 0 0 1 1.5 5.6L21 34.6a3 3 0 0 1-3.6-2zm60.7 0a3 3 0 0 0-2-3.6l-13.5-3.6A3 3 0 0 0 61 31l13.5 3.6a3 3 0 0 0 3.5-2z"/></g></svg>